PathFileType	4	(X/Y/Z)	/Users/itak/Documents/Research/Walk-IL/dataset/trc/00440_00167.trc
DataRate	CameraRate	NumFrames	NumMarkers	Units	OrigDataRate	OrigDataStartFrame	OrigNumFrames
100.000000	100.000000	4	53	mm	100.000000	367	490
Frame#	Time	RPSI			LPSI			L3			STRN			T10			C7			CLAV			RBAK			LBAK			LSHO			LUPA			LAEL			LAOL			LWTS			LWPS			LFRA			LIFD			LHPS			LHTS			RSHO			RUPA			RAEL			RAOL			RWTS			RWPS			RFRA			RIFD			RHTS			RHPS			RBHD			LFHD			RFHD			LBHD			LHIP			RHIP			RASI			LASI			LKNE			LTHI			LANK			LTIP			LTOE			LMT1			LMT5			LHEE			RKNE			RTHI			RANK			RTIP			RTOE			RMT1			RMT5			RHEE			
		X1	Y1	Z1	X2	Y2	Z2	X3	Y3	Z3	X4	Y4	Z4	X5	Y5	Z5	X6	Y6	Z6	X7	Y7	Z7	X8	Y8	Z8	X9	Y9	Z9	X10	Y10	Z10	X11	Y11	Z11	X12	Y12	Z12	X13	Y13	Z13	X14	Y14	Z14	X15	Y15	Z15	X16	Y16	Z16	X17	Y17	Z17	X18	Y18	Z18	X19	Y19	Z19	X20	Y20	Z20	X21	Y21	Z21	X22	Y22	Z22	X23	Y23	Z23	X24	Y24	Z24	X25	Y25	Z25	X26	Y26	Z26	X27	Y27	Z27	X28	Y28	Z28	X29	Y29	Z29	X30	Y30	Z30	X31	Y31	Z31	X32	Y32	Z32	X33	Y33	Z33	X34	Y34	Z34	X35	Y35	Z35	X36	Y36	Z36	X37	Y37	Z37	X38	Y38	Z38	X39	Y39	Z39	X40	Y40	Z40	X41	Y41	Z41	X42	Y42	Z42	X43	Y43	Z43	X44	Y44	Z44	X45	Y45	Z45	X46	Y46	Z46	X47	Y47	Z47	X48	Y48	Z48	X49	Y49	Z49	X50	Y50	Z50	X51	Y51	Z51	X52	Y52	Z52	X53	Y53	Z53	

368	3.67	873.9379272460938	896.0409545898438	781.111083984375	979.7062377929688	873.3162841796875	690.7359008789062	903.7045288085938	980.1349487304688	753.5315551757812	1111.439086914062	1189.424926757812	923.7659912109375	885.05712890625	1105.450805664062	744.6547241210938	917.076904296875	1373.893676757812	799.4417724609375	1081.562133789062	1301.446533203125	892.6887817382812	815.233642578125	1252.4501953125	841.945556640625	948.0974731445312	1327.509887695312	701.3809204101562	1077.04443359375	1354.667114257812	691.8579711914062	1117.146728515625	1240.03125	598.39599609375	1146.82470703125	1027.078979492188	564.8926391601562	1045.118286132812	1013.77734375	582.2501220703125	1184.849975585938	815.7266845703125	629.4508666992188	1175.903076171875	807.7723999023438	556.4610595703125	1166.93408203125	938.3102416992188	560.991455078125	1182.963134765625	648.5201416015625	614.5996704101562	1176.550659179688	726.717041015625	555.2740478515625	1196.44921875	726.3662109375	623.3760375976562	884.9086303710938	1346.941040039062	970.4243774414062	833.8408203125	1286.1787109375	1030.0078125	844.1227416992188	1006.939514160156	1115.006713867188	819.0934448242188	972.9353637695312	1058.774658203125	1003.252990722656	845.6286010742188	1143.510620117188	927.8959350585938	811.3382568359375	1171.378295898438	859.1594848632812	952.3260498046875	1134.53369140625	1048.681762695312	696.9442749023438	1177.776000976562	1039.231079101562	757.3175659179688	1177.075439453125	969.1046142578125	734.6445922851562	1189.960205078125	927.0606689453125	1572.761352539062	901.6876220703125	1129.077026367188	1596.779541015625	864.2695922851562	1047.040771484375	1599.266723632812	965.2578735351562	1025.977294921875	1573.172607421875	754.3750610351562	1167.20068359375	791.01611328125	732.0906372070312	830.0210571289062	807.1766967773438	963.6406860351562	949.9177856445312	839.3873291015625	1004.558532714844	1153.745483398438	841.3251342773438	852.0664672851562	1310.156005859375	431.7446899414062	892.0887451171875	1273.452514648438	575.225341796875	845.834228515625	1411.096069335938	26.3757381439209	942.38720703125	1366.756103515625	287.9154663085938	916.1131591796875	1498.305786132812	116.0564041137695	1138.099975585938	1431.379760742188	86.41577911376953	1110.159057617188	1507.659423828125	87.49506378173828	1030.484008789062	1340.595092773438	10.69907760620117	939.1224365234375	819.6149291992188	417.5363464355469	902.456298828125	850.3592529296875	664.686279296875	985.710693359375	640.0625610351562	70.67395782470703	722.5951538085938	758.9607543945312	288.2541809082031	855.9844360351562	840.1625366210938	36.48105239868164	797.7416381835938	806.5100708007812	46.35495758056641	737.62060546875	728.8948364257812	41.39531326293945	813.177001953125	613.195556640625	89.18828582763672	647.2579956054688	
369	3.68	885.40966796875	895.3796997070312	785.8822021484375	991.6419067382812	872.5400390625	695.8374633789062	915.8436889648438	978.8072509765625	758.6856079101562	1122.076782226562	1188.778930664062	929.1748046875	896.9686889648438	1104.080200195312	749.0232543945312	928.0985717773438	1372.8173828125	803.109619140625	1092.226440429688	1300.723022460938	897.75927734375	826.3401489257812	1251.1875	845.0406494140625	959.8697509765625	1326.315307617188	705.3711547851562	1088.8486328125	1353.767211914062	696.6689453125	1129.515625	1239.005493164062	603.5108032226562	1159.12060546875	1025.867065429688	570.51953125	1057.320434570312	1012.795959472656	587.2559814453125	1196.307739257812	814.58740234375	635.9717407226562	1187.948608398438	806.4403076171875	562.9391479492188	1179.170288085938	937.0479125976562	567.0169067382812	1193.958251953125	647.3590698242188	621.6941528320312	1188.270141601562	725.3465576171875	562.0162353515625	1207.660034179688	725.1713256835938	630.303466796875	894.8202514648438	1346.001708984375	973.9667358398438	842.8414916992188	1284.757690429688	1032.328979492188	850.6817016601562	1004.658508300781	1115.451293945312	825.9501953125	972.2723999023438	1059.070922851562	1007.818298339844	841.5549926757812	1144.532958984375	931.9693603515625	807.9884033203125	1171.652099609375	865.0176391601562	949.9569091796875	1134.949096679688	1051.322143554688	692.0343627929688	1177.352905273438	1042.441162109375	752.4750366210938	1177.394653320312	971.6670532226562	730.16015625	1188.948120117188	937.0250244140625	1571.97607421875	905.4249877929688	1139.11865234375	1596.359619140625	868.5088500976562	1056.806518554688	1598.82373046875	969.2643432617188	1036.314697265625	1572.391357421875	758.38037109375	1178.667602539062	789.7427978515625	738.255126953125	839.7356567382812	806.61865234375	968.1480102539062	959.7420043945312	838.2432861328125	1009.716186523438	1164.5322265625	839.8557739257812	858.2491455078125	1319.260620117188	429.6439208984375	898.4181518554688	1283.672241210938	573.0663452148438	852.0016479492188	1413.776611328125	24.14398193359375	944.2139892578125	1373.998291015625	284.886962890625	921.799560546875	1502.9326171875	105.7596282958984	1142.752685546875	1435.33984375	79.15088653564453	1113.642456054688	1511.838256835938	79.03318023681641	1034.379760742188	1342.737670898438	11.72357749938965	940.1975708007812	825.6867065429688	417.5945129394531	906.64501953125	858.5333862304688	664.3053588867188	990.1889038085938	640.9974365234375	74.06051635742188	724.2101440429688	762.7588500976562	289.840576171875	859.651611328125	840.2476196289062	36.51427459716797	797.8721313476562	806.841796875	46.75728225708008	738.3405151367188	729.3117065429688	41.39020538330078	813.7052612304688	614.5503540039062	94.72879028320312	649.2628173828125	
370	3.69	896.7762451171875	894.7123413085938	790.7689819335938	1003.490844726562	872.1177978515625	700.91015625	928.0857543945312	977.7022705078125	764.063720703125	1132.879760742188	1188.2978515625	934.5985717773438	908.915283203125	1102.88330078125	753.51806640625	939.2741088867188	1371.965087890625	806.84033203125	1103.044555664062	1300.1630859375	902.8740234375	837.59814453125	1250.093505859375	848.1837158203125	971.7518310546875	1325.319458007812	709.3961181640625	1100.773559570312	1353.024169921875	701.49853515625	1141.968994140625	1238.087524414062	608.6654663085938	1171.553344726562	1024.787475585938	576.179931640625	1069.669555664062	1011.919189453125	592.30029296875	1207.934204101562	813.6087036132812	642.5377807617188	1200.16748046875	805.2507934570312	569.4755249023438	1191.548706054688	935.9234619140625	573.0801391601562	1205.152465820312	646.3551635742188	628.8822021484375	1200.169189453125	724.1176147460938	568.8338012695312	1219.052856445312	724.14404296875	637.3001708984375	904.8508911132812	1345.224609375	977.5824584960938	851.9896240234375	1283.480590820312	1034.717651367188	857.29345703125	1002.544128417969	1115.944213867188	832.8672485351562	971.8002319335938	1059.304809570312	1012.089660644531	837.477294921875	1145.475219726562	935.7047729492188	804.7310180664062	1171.750122070312	870.7026977539062	947.6372680664062	1135.095336914062	1053.38427734375	687.1091918945312	1176.85791015625	1045.221069335938	747.6071166992188	1177.617431640625	973.826416015625	725.8069458007812	1187.890991210938	947.0996704101562	1571.416259765625	909.195068359375	1149.255615234375	1596.178344726562	872.8026733398438	1066.640625	1598.578735351562	973.302490234375	1046.763427734375	1571.878295898438	762.4134521484375	1190.155029296875	788.953125	744.2809448242188	849.6463623046875	805.8968505859375	972.775390625	969.7216186523438	837.107421875	1014.906860351562	1175.334716796875	838.7119140625	864.3372802734375	1328.497802734375	428.1438293457031	904.8407592773438	1294.090087890625	571.351806640625	858.0878295898438	1416.186401367188	22.56534576416016	945.9508666992188	1381.338256835938	282.5150756835938	927.606689453125	1507.372436523438	94.79030609130859	1147.479248046875	1439.052734375	71.88182830810547	1117.068603515625	1515.851806640625	70.34437561035156	1038.264892578125	1344.680297851562	13.51654624938965	941.2001342773438	832.1550903320312	417.6329345703125	911.0943603515625	866.5825805664062	664.0501098632812	994.7296752929688	642.1072998046875	77.70701599121094	726.0064086914062	766.9674072265625	291.4931030273438	863.5706176757812	840.320068359375	36.56708908081055	797.9783325195312	807.27490234375	47.21037292480469	739.0903930664062	729.7787475585938	41.38501358032227	814.2572021484375	616.1997680664062	100.6509552001953	651.5420532226562	
371	3.7	907.8997192382812	894.0637817382812	795.7999877929688	1015.068725585938	872.1318359375	705.9551391601562	940.2916870117188	976.9385375976562	769.622314453125	1143.809692382812	1188.015258789062	940.0101928710938	920.7977294921875	1101.963012695312	758.1244506835938	950.5787353515625	1371.396118164062	810.65673828125	1113.981567382812	1299.803466796875	908.0177001953125	848.9590454101562	1249.25732421875	851.3965454101562	983.71630859375	1324.609252929688	713.4522705078125	1112.79736328125	1352.483764648438	706.3516845703125	1154.492797851562	1237.3154296875	613.8794555664062	1184.128051757812	1023.886352539062	581.9113159179688	1082.168701171875	1011.184143066406	597.4041137695312	1219.7294921875	812.8252563476562	649.1484375	1212.564819335938	804.253662109375	576.064697265625	1204.067016601562	934.9839477539062	579.2035522460938	1216.560791015625	645.5476684570312	636.123291015625	1212.260864257812	723.0809936523438	575.70361328125	1230.628784179688	723.3203735351562	644.3431396484375	914.9962768554688	1344.662475585938	981.3013916015625	861.296630859375	1282.43701171875	1037.25634765625	863.9732055664062	1000.697875976562	1116.51708984375	839.8534545898438	971.5323486328125	1059.502563476562	1016.056213378906	833.4600830078125	1146.338012695312	939.0671997070312	801.6068725585938	1171.608032226562	876.2481079101562	945.4591064453125	1135.0234375	1054.792846679688	682.2274169921875	1176.3310546875	1047.52978515625	742.786376953125	1177.760986328125	975.5840454101562	721.701904296875	1186.822387695312	957.2731323242188	1571.109252929688	913.0048828125	1159.475219726562	1596.262451171875	877.1571044921875	1076.5322265625	1598.558349609375	977.3807373046875	1057.318481445312	1571.661010742188	766.4815063476562	1201.511474609375	788.759521484375	750.0977172851562	859.7504272460938	805.0082397460938	977.5220947265625	979.8413696289062	836.0219116210938	1020.097839355469	1186.083618164062	838.0227661132812	870.2500610351562	1337.90966796875	427.3894653320312	911.399658203125	1304.704223632812	570.2860107421875	864.1235961914062	1418.366333007812	21.55466651916504	947.5660400390625	1388.776611328125	280.8888244628906	933.4762573242188	1511.397827148438	83.601806640625	1152.064086914062	1442.372314453125	64.86127471923828	1120.299560546875	1519.588256835938	61.83260345458984	1041.984985351562	1346.497436523438	15.7421932220459	942.1343383789062	839.0779418945312	417.6699523925781	915.8818359375	874.5687866210938	663.9301147460938	999.3250732421875	643.441650390625	81.64827728271484	727.9921264648438	771.6837158203125	293.2134704589844	867.763916015625	840.368408203125	36.64492797851562	798.056884765625	807.8267211914062	47.71155166625977	739.8489379882812	730.3045654296875	41.39319229125977	814.8307495117188	618.236083984375	106.9966201782227	654.1111450195312	
